<?xml version="1.0" encoding="utf-8"?><svg xmlns="http://www.w3.org/2000/svg" xmlns:xlink="http://www.w3.org/1999/xlink"><symbol viewBox="0 0 15 14" id="close" xmlns="http://www.w3.org/2000/svg"><path d="M14.5 1.41L13.09 0L7.5 5.59L1.91 0L0.5 1.41L6.09 7L0.5 12.59L1.91 14L7.5 8.41L13.09 14L14.5 12.59L8.91 7L14.5 1.41Z"/></symbol><symbol viewBox="0 0 12 8" id="dropdown" xmlns="http://www.w3.org/2000/svg"><path d="M1.41 0.296875L6 4.87687L10.59 0.296875L12 1.70687L6 7.70687L0 1.70687L1.41 0.296875Z"/></symbol><symbol viewBox="0 0 20 18.3516" id="heart" xmlns="http://www.w3.org/2000/svg"><desc>Created with Pixso.</desc><defs/><path id="cVector" d="M10 18.35L8.54 17.03C3.4 12.35 0 9.28 0 5.5C0 2.42 2.41 0 5.5 0C7.24 0 8.91 0.8 10 2.08C11.08 0.8 12.75 0 14.5 0C17.58 0 20 2.42 20 5.5C20 9.28 16.59 12.35 11.45 17.03L10 18.35Z" fill-opacity="1.000000" fill-rule="nonzero"/><path id="cVector" d="M8.58 0.88C7.66 0.32 6.59 0 5.5 0C2.41 0 0 2.42 0 5.5C0 9.28 3.4 12.35 8.54 17.03L10 18.35L11.45 17.03C16.59 12.35 20 9.28 20 5.5C20 2.42 17.58 0 14.5 0C13.4 0 12.33 0.32 11.41 0.88C10.88 1.2 10.4 1.61 10 2.08C9.59 1.61 9.11 1.2 8.58 0.88ZM10 15.64L9.89 15.55L9.89 15.54L9.88 15.53Q8.62 14.4 8.04 13.86Q7.1 12.99 6.42 12.34Q4.81 10.79 3.88 9.66Q2.89 8.44 2.43 7.42Q2 6.44 2 5.5Q2 4.95 2.15 4.44Q2.2 4.27 2.27 4.1Q2.41 3.78 2.6 3.49Q2.78 3.23 3 3Q3.23 2.78 3.49 2.6Q3.77 2.41 4.11 2.27Q4.27 2.2 4.44 2.15Q4.95 2 5.5 2Q5.73 2 5.96 2.02Q6.56 2.1 7.14 2.37Q7.68 2.62 8.11 3.01Q8.3 3.18 8.47 3.38L10 5.17L11.52 3.38Q11.69 3.18 11.88 3.01Q12.31 2.62 12.85 2.37Q13.43 2.1 14.03 2.02Q14.26 2 14.5 2Q15.04 2 15.55 2.15Q15.72 2.2 15.88 2.27Q16.22 2.41 16.5 2.6Q16.76 2.78 16.99 3Q17.21 3.23 17.39 3.49Q17.58 3.78 17.72 4.1Q17.79 4.27 17.84 4.44Q18 4.95 18 5.5Q18 6.44 17.56 7.41Q17.11 8.43 16.11 9.65Q15.19 10.78 13.59 12.33Q12.91 12.98 11.97 13.85Q11.39 14.38 10.14 15.52L10.13 15.53L10.12 15.53L10.12 15.53L10.12 15.53L10.12 15.54L10.12 15.54L10.11 15.54L10.11 15.55L10.11 15.55L10.11 15.55L10.11 15.55L10.11 15.55L10.1 15.55L10.1 15.55L10 15.64Z" fill-opacity="1.000000" fill-rule="evenodd"/></symbol><symbol viewBox="0 0 25 24" id="menu" xmlns="http://www.w3.org/2000/svg"><path d="M3.5 18H21.5V16H3.5V18ZM3.5 13H21.5V11H3.5V13ZM3.5 6V8H21.5V6H3.5Z"/></symbol><symbol viewBox="0 0 16 17" id="person" xmlns="http://www.w3.org/2000/svg"><desc>Created with Pixso.</desc><defs/><path id="eVector" d="M12 5C12 7.21 10.21 9 8 9C5.79 9 4 7.21 4 5L4 1.5C4 0.67 4.66 0 5.5 0C6.01 0 6.48 0.26 6.75 0.67C7.01 0.26 7.48 0 8 0C8.51 0 8.98 0.26 9.25 0.67C9.51 0.26 9.98 0 10.5 0C11.33 0 12 0.67 12 1.5L12 5ZM10 5L10 2.5L6 2.5L6 5C6 6.1 6.9 7 8 7C9.09 7 10 6.1 10 5ZM8 10C10.53 10 12.71 10.69 14.38 11.55C15.38 12.07 16 13.1 16 14.21L16 17L0 17L0 14.21C0 13.1 0.61 12.07 1.61 11.55C3.29 10.69 5.46 10 8 10ZM2 14.21L2 15L14 15L14 14.21C14 13.83 13.79 13.5 13.48 13.33C12.29 12.73 10.37 12 8 12C5.62 12 3.7 12.73 2.51 13.33C2.2 13.5 2 13.83 2 14.21Z" fill-opacity="1.000000" fill-rule="evenodd"/></symbol><symbol viewBox="0 0 17.4902 17.4883" id="search" xmlns="http://www.w3.org/2000/svg"><desc>Created with Pixso.</desc><defs/><path id="fsearch" d="M12.5 11L11.71 11L11.42 10.73C12.41 9.58 13 8.1 13 6.5C13 2.91 10.08 0 6.5 0C2.91 0 0 2.91 0 6.5C0 10.08 2.91 13 6.5 13C8.11 13 9.58 12.41 10.73 11.42L11 11.71L11 12.5L16 17.48L17.49 16L12.5 11ZM6.5 11C4 11 2 8.98 2 6.5C2 4.01 4 2 6.5 2C8.99 2 11 4.01 11 6.5C11 8.98 8.99 11 6.5 11Z" fill-opacity="1.000000" fill-rule="nonzero"/></symbol><symbol viewBox="0 0 16 20" id="shop" xmlns="http://www.w3.org/2000/svg"><desc>Created with Pixso.</desc><defs/><path id="gVector" d="M14 4L12 4C12 1.78 10.21 0 8 0C5.79 0 4 1.78 4 4L2 4C0.9 4 0 4.89 0 6L0 18C0 19.1 0.9 20 2 20L14 20C15.09 20 16 19.1 16 18L16 6C16 4.89 15.09 4 14 4ZM8 2C9.09 2 10 2.89 10 4L6 4C6 2.89 6.9 2 8 2ZM14 18L2 18L2 6L4 6L4 8C4 8.55 4.45 9 5 9C5.54 9 6 8.55 6 8L6 6L10 6L10 8C10 8.55 10.45 9 11 9C11.54 9 12 8.55 12 8L12 6L14 6L14 18Z" fill-opacity="1.000000" fill-rule="nonzero"/></symbol></svg>