<svg width="16.000000" height="17.000000" viewBox="0 0 16 17" fill="none" xmlns="http://www.w3.org/2000/svg" xmlns:xlink="http://www.w3.org/1999/xlink">
	<desc>
			Created with Pixso.
	</desc>
	<defs/>
	<path id="Vector" d="M12 5C12 7.21 10.21 9 8 9C5.79 9 4 7.21 4 5L4 1.5C4 0.67 4.66 0 5.5 0C6.01 0 6.48 0.26 6.75 0.67C7.01 0.26 7.48 0 8 0C8.51 0 8.98 0.26 9.25 0.67C9.51 0.26 9.98 0 10.5 0C11.33 0 12 0.67 12 1.5L12 5ZM10 5L10 2.5L6 2.5L6 5C6 6.1 6.9 7 8 7C9.09 7 10 6.1 10 5ZM8 10C10.53 10 12.71 10.69 14.38 11.55C15.38 12.07 16 13.1 16 14.21L16 17L0 17L0 14.21C0 13.1 0.61 12.07 1.61 11.55C3.29 10.69 5.46 10 8 10ZM2 14.21L2 15L14 15L14 14.21C14 13.83 13.79 13.5 13.48 13.33C12.29 12.73 10.37 12 8 12C5.62 12 3.7 12.73 2.51 13.33C2.2 13.5 2 13.83 2 14.21Z" fill="#202020" fill-opacity="1.000000" fill-rule="evenodd"/>
</svg>
