<svg width="17.490234" height="17.488281" viewBox="0 0 17.4902 17.4883" fill="none" xmlns="http://www.w3.org/2000/svg" xmlns:xlink="http://www.w3.org/1999/xlink">
	<desc>
			Created with Pixso.
	</desc>
	<defs/>
	<path id="search" d="M12.5 11L11.71 11L11.42 10.73C12.41 9.58 13 8.1 13 6.5C13 2.91 10.08 0 6.5 0C2.91 0 0 2.91 0 6.5C0 10.08 2.91 13 6.5 13C8.11 13 9.58 12.41 10.73 11.42L11 11.71L11 12.5L16 17.48L17.49 16L12.5 11ZM6.5 11C4 11 2 8.98 2 6.5C2 4.01 4 2 6.5 2C8.99 2 11 4.01 11 6.5C11 8.98 8.99 11 6.5 11Z" fill="#0C0C0C" fill-opacity="1.000000" fill-rule="nonzero"/>
</svg>
