<?xml version="1.0" encoding="utf-8"?><svg viewBox="0 0 25 24" xmlns="http://www.w3.org/2000/svg" xmlns:xlink="http://www.w3.org/1999/xlink"><style>:root>svg{display:none}:root>svg:target{display:block}</style><svg fill="none" viewBox="0 0 15 14" id="close" xmlns="http://www.w3.org/2000/svg"><path d="M14.5 1.41 13.09 0 7.5 5.59 1.91 0 .5 1.41 6.09 7 .5 12.59 1.91 14 7.5 8.41 13.09 14l1.41-1.41L8.91 7l5.59-5.59Z" fill="#0C0C0C"/></svg><svg fill="none" viewBox="0 0 12 8" id="dropdown" xmlns="http://www.w3.org/2000/svg"><path d="M1.41.297 6 4.877l4.59-4.58L12 1.707l-6 6-6-6L1.41.297Z" fill="#0C0C0C"/></svg><svg viewBox="0 0 20 18.352" id="heart" xmlns="http://www.w3.org/2000/svg"><path d="m10 18.35-1.46-1.32C3.4 12.35 0 9.28 0 5.5 0 2.42 2.41 0 5.5 0 7.24 0 8.91.8 10 2.08A5.947 5.947 0 0 1 14.5 0C17.58 0 20 2.42 20 5.5c0 3.78-3.41 6.85-8.55 11.53L10 18.35Z"/><path d="M8.58.88C7.66.32 6.59 0 5.5 0 2.41 0 0 2.42 0 5.5c0 3.78 3.4 6.85 8.54 11.53L10 18.35l1.45-1.32C16.59 12.35 20 9.28 20 5.5 20 2.42 17.58 0 14.5 0c-1.1 0-2.17.32-3.09.88-.53.32-1.01.73-1.41 1.2-.41-.47-.89-.88-1.42-1.2ZM10 15.64l-.11-.09v-.01l-.01-.01q-1.26-1.13-1.84-1.67-.94-.87-1.62-1.52-1.61-1.55-2.54-2.68-.99-1.22-1.45-2.24Q2 6.44 2 5.5q0-.55.15-1.06.05-.17.12-.34.14-.32.33-.61.18-.26.4-.49.23-.22.49-.4.28-.19.62-.33.16-.07.33-.12Q4.95 2 5.5 2q.23 0 .46.02.6.08 1.18.35.54.25.97.64.19.17.36.37L10 5.17l1.52-1.79q.17-.2.36-.37.43-.39.97-.64.58-.27 1.18-.35.23-.02.47-.02.54 0 1.05.15.17.05.33.12.34.14.62.33.26.18.49.4.22.23.4.49.19.29.33.61.07.17.12.34.16.51.16 1.06 0 .94-.44 1.91-.45 1.02-1.45 2.24-.92 1.13-2.52 2.68-.68.65-1.62 1.52l-1.83 1.67-.01.01h-.01v.01h-.01v.01h-.01l-.1.09Z" fill-rule="evenodd"/></svg><svg fill="none" viewBox="0 0 25 24" id="menu" xmlns="http://www.w3.org/2000/svg"><path d="M3.5 18h18v-2h-18v2Zm0-5h18v-2h-18v2Zm0-7v2h18V6h-18Z" fill="#0C0C0C"/></svg><svg fill="none" viewBox="0 0 16 17" id="person" xmlns="http://www.w3.org/2000/svg"><path d="M12 5c0 2.21-1.79 4-4 4S4 7.21 4 5V1.5C4 .67 4.66 0 5.5 0c.51 0 .98.26 1.25.67C7.01.26 7.48 0 8 0c.51 0 .98.26 1.25.67C9.51.26 9.98 0 10.5 0c.83 0 1.5.67 1.5 1.5V5Zm-2 0V2.5H6V5c0 1.1.9 2 2 2 1.09 0 2-.9 2-2Zm-2 5c2.53 0 4.71.69 6.38 1.55 1 .52 1.62 1.55 1.62 2.66V17H0v-2.79c0-1.11.61-2.14 1.61-2.66C3.29 10.69 5.46 10 8 10Zm-6 4.21V15h12v-.79c0-.38-.21-.71-.52-.88C12.29 12.73 10.37 12 8 12c-2.38 0-4.3.73-5.49 1.33-.31.17-.51.5-.51.88Z" fill="#202020" fill-rule="evenodd"/></svg><svg fill="none" viewBox="0 0 17.49 17.488" id="search" xmlns="http://www.w3.org/2000/svg"><path d="M12.5 11h-.79l-.29-.27A6.467 6.467 0 0 0 13 6.5 6.5 6.5 0 1 0 6.5 13c1.61 0 3.08-.59 4.23-1.58l.27.29v.79l5 4.98L17.49 16l-4.99-5Zm-6 0C4 11 2 8.98 2 6.5 2 4.01 4 2 6.5 2a4.5 4.5 0 0 1 0 9Z" fill="#0C0C0C"/></svg><svg fill="none" viewBox="0 0 16 20" id="shop" xmlns="http://www.w3.org/2000/svg"><path d="M14 4h-2c0-2.22-1.79-4-4-4S4 1.78 4 4H2a2 2 0 0 0-2 2v12c0 1.1.9 2 2 2h12c1.09 0 2-.9 2-2V6c0-1.11-.91-2-2-2ZM8 2c1.09 0 2 .89 2 2H6a2 2 0 0 1 2-2Zm6 16H2V6h2v2c0 .55.45 1 1 1 .54 0 1-.45 1-1V6h4v2c0 .55.45 1 1 1 .54 0 1-.45 1-1V6h2v12Z" fill="#202020"/></svg></svg>